# xmcd
#
# Track frame offsets: 
#        150
#        10141
#        21706
#        38923
#        53924
#        66296
#        74785
#        97999
#        111019
#        122960
#        139064
#
# Disc length: 2031 seconds
#
# Revision: 0
# Processed by: cddbd v1.5.2PL0 Copyright (c) Steve Scherf et al.
# Submitted via: ExactAudioCopy v1.3
#
DISCID=a407ed0b
DTITLE=Angry Johnny and The Killbillies - Prehistoric Killville
DYEAR=2009
DGENRE=Country
TTITLE0=Mr Undertaker 
TTITLE1=I Wanna Write You A Letter 
TTITLE2=You Don't Give A Shit About Me 
TTITLE3=Wrecking Ball
TTITLE4=Buying A Rope 
TTITLE5=Bottle Of Wine 
TTITLE6=Pass Me The Jug 
TTITLE7=Poor Little Raccoon 
TTITLE8=Scratch Said 
TTITLE9=My Ghoul Maggie 
TTITLE10=Take Me Up To The Promised Land
EXTD=
EXTT0=
EXTT1=
EXTT2=
EXTT3=
EXTT4=
EXTT5=
EXTT6=
EXTT7=
EXTT8=
EXTT9=
EXTT10=
PLAYORDER=
